# xmcd
#
# Track frame offsets:
#	150
#	18677
#	35251
#	50240
#	71433
#	88018
#	104874
#	117674
#	132933
#	148998
#	166600
#	180655
#	193690
#	210906
#	228958
#	245899
#	263854
#	278535
#	295076
#
# Disc length: 4220 seconds
#
# Revision: 2
# Processed by: cddbd v1.5.2PL0 Copyright (c) Steve Scherf et al.
# Submitted via: EasyCDDAExtractor 11.5.0.1
#
DISCID=23107a13
DTITLE=Various Artist - NCT 042
DYEAR=2002
DGENRE=Country
TTITLE0=Tim McGraw - Red Rag Top
TTITLE1=Gary Allan - Man To Man
TTITLE2=Mark Wills - 19 Something
TTITLE3=Kenny Chesney - A Lot Of Things Different
TTITLE4=Mark Chesnutt - I Want My Baby Back
TTITLE5=Jack Ingram - Fool
TTITLE6=Pam Tillis ft. Ray Benson - Honey (Open The Door)
TTITLE7=Steve Holy - I'm Not Breakin'
TTITLE8=LeeAnn Rimes - Life Goes On
TTITLE9=Anthony Smith - John J. Blanchard
TTITLE10=Kelly Willis - If I Left You
TTITLE11=Brad Martin - Rub Me The Right Way
TTITLE12=Neal McCoy - The Luckiest Man In The World
TTITLE13=Robin English - Beautiful Today
TTITLE14=Sawyer Brown - I Need A Girlfriend
TTITLE15=Rodney Atkins - My Old Man
TTITLE16=Trace Adkins - Chrome
TTITLE17=David Ball - Whenever You Come Back To Me
TTITLE18=Cross Canadian Ragweed - 17
EXTD=
EXTT0=
EXTT1=
EXTT2=
EXTT3=
EXTT4=
EXTT5=
EXTT6=
EXTT7=
EXTT8=
EXTT9=
EXTT10=
EXTT11=
EXTT12=
EXTT13=
EXTT14=
EXTT15=
EXTT16=
EXTT17=
EXTT18=
PLAYORDER=
